<?xml version="1.0" standalone="no"?>
<!DOCTYPE svg PUBLIC "-//W3C//DTD SVG 20010904//EN"
 "http://www.w3.org/TR/2001/REC-SVG-20010904/DTD/svg10.dtd">
<svg version="1.0" xmlns="http://www.w3.org/2000/svg"
 width="1340.000000pt" height="744.000000pt" viewBox="0 0 1340.000000 744.000000"
 preserveAspectRatio="xMidYMid meet">

<g transform="translate(0.000000,744.000000) scale(0.100000,-0.100000)"
fill="#000000" stroke="none">
<path d="M6575 7258 c-135 -8 -280 -31 -403 -63 -92 -25 -300 -105 -331 -128
-14 -11 -15 -34 -11 -194 l5 -182 52 35 c91 61 294 159 408 196 288 96 458
123 725 115 212 -7 309 -24 514 -91 248 -82 445 -199 631 -376 108 -103 108
-100 -2 31 -218 261 -580 488 -935 588 -207 58 -438 83 -653 69z"/>
<path d="M6117 6620 c-123 -31 -220 -113 -287 -241 -50 -96 -70 -183 -70 -310
0 -175 20 -243 161 -539 95 -201 129 -299 153 -436 20 -115 20 -178 0 -210
-26 -39 -21 -97 12 -141 15 -20 24 -38 18 -40 -35 -12 -77 -49 -90 -78 -12
-30 -12 -40 0 -69 8 -18 19 -37 25 -40 6 -4 -7 -24 -34 -50 -50 -48 -54 -66
-25 -114 l20 -33 -35 -33 c-38 -36 -43 -60 -20 -93 14 -20 12 -24 -20 -56 -38
-38 -42 -53 -22 -81 12 -16 10 -22 -15 -47 -25 -24 -27 -32 -18 -50 9 -16 8
-24 -4 -38 -9 -10 -16 -27 -16 -39 0 -59 127 -71 178 -17 22 23 23 26 7 20
-42 -17 -95 -17 -120 -1 -39 26 -30 35 29 29 72 -7 118 2 150 32 36 34 33 47
-9 29 -45 -18 -98 -18 -136 2 -34 17 -37 52 -4 45 80 -15 142 -11 184 11 72
37 87 82 18 53 -85 -35 -203 2 -182 57 5 12 15 12 66 0 49 -12 69 -13 114 -3
50 11 55 15 55 39 0 26 -2 27 -59 29 -70 1 -118 24 -127 59 -10 38 5 44 66 28
30 -8 69 -14 88 -14 33 0 33 1 30 42 -3 40 -5 41 -50 55 -31 9 -54 23 -68 43
-23 33 -23 67 1 62 8 -2 37 -9 64 -17 l50 -12 3 53 c3 51 1 56 -38 92 -39 38
-46 55 -34 85 4 12 16 10 67 -11 53 -22 78 -26 172 -26 170 -1 280 45 330 137
28 51 72 70 150 65 123 -8 176 -70 183 -219 6 -112 -15 -239 -83 -514 -48
-194 -84 -400 -71 -412 2 -2 10 13 16 34 7 21 49 119 93 218 43 99 100 230
127 290 126 293 165 488 124 624 -50 169 -308 276 -466 195 -61 -31 -147 -115
-197 -192 -27 -42 -55 -83 -62 -91 -20 -23 -141 -8 -208 26 l-56 28 2 55 c10
319 0 437 -53 615 -13 44 -51 185 -84 313 -53 203 -60 244 -60 325 0 108 17
155 73 204 49 43 103 57 217 56 103 -1 113 -3 319 -82 74 -28 136 -50 138 -47
10 9 -197 205 -258 244 -133 85 -314 129 -422 102z"/>
<path d="M7433 6573 c-23 -4 -23 -6 -23 -167 l0 -162 29 -22 c68 -50 161 -211
196 -337 23 -84 30 -277 16 -425 -24 -244 -65 -411 -175 -718 l-66 -181 0
-168 0 -168 25 30 c45 54 171 248 227 350 135 241 257 568 314 838 50 236 43
562 -16 739 -71 213 -257 379 -440 392 -36 2 -75 2 -87 -1z"/>
<path d="M5078 6420 c-455 -636 -502 -1489 -118 -2156 34 -58 84 -138 113
-177 l52 -72 3 249 2 248 -34 112 c-61 194 -71 267 -70 491 1 230 17 355 66
525 32 113 33 119 36 345 1 127 1 291 0 365 l-3 135 -47 -65z"/>
<path d="M6960 6268 c-117 -81 -354 -175 -510 -202 l-75 -13 60 -19 c44 -14
87 -19 160 -18 109 1 181 22 348 99 l77 36 0 74 c0 41 -3 75 -7 75 -5 0 -28
-14 -53 -32z"/>
<path d="M8298 4100 c-7 -23 -204 -224 -276 -282 -177 -143 -439 -291 -627
-352 -110 -35 -273 -73 -375 -85 -123 -16 -398 -13 -515 4 -186 28 -448 124
-630 230 l-45 27 0 -96 0 -97 63 -28 c369 -165 760 -214 1167 -145 364 62 791
294 1049 570 119 127 224 264 203 264 -6 0 -12 -4 -14 -10z"/>
<path d="M7001 3754 c-12 -27 -11 -28 4 -12 10 9 16 21 13 28 -2 7 -10 -1 -17
-16z"/>
<path d="M2025 2719 c-237 -36 -403 -182 -456 -399 -19 -78 -16 -222 5 -295
86 -290 380 -445 715 -376 132 27 167 27 183 1 16 -25 35 -26 42 -2 2 9 7 73
11 142 3 69 9 140 12 158 5 31 3 33 -17 30 -18 -2 -26 -15 -40 -60 -47 -153
-149 -228 -310 -228 -163 0 -264 90 -316 281 -24 87 -25 326 -1 422 22 90 57
156 106 200 59 53 98 70 177 75 170 11 278 -60 331 -217 14 -42 28 -67 39 -70
16 -3 16 8 10 130 -11 217 -20 252 -54 199 -15 -25 -61 -26 -159 -6 -95 20
-207 26 -278 15z"/>
<path d="M3142 2719 c-265 -40 -444 -237 -459 -509 -15 -278 141 -491 413
-560 253 -65 535 52 641 266 46 92 58 148 58 269 0 130 -23 210 -87 305 -115
173 -338 263 -566 229z m175 -62 c44 -16 118 -87 143 -138 53 -102 79 -302 60
-451 -21 -172 -73 -283 -158 -343 -40 -27 -51 -30 -122 -30 -71 0 -82 3 -121
30 -86 61 -137 169 -160 342 -19 147 7 348 60 450 25 49 96 118 141 137 41 18
112 19 157 3z"/>
<path d="M3935 2698 c-2 -7 -6 -56 -9 -108 -4 -52 -9 -121 -12 -152 -6 -57 -6
-58 19 -58 21 0 28 7 38 38 22 68 68 149 100 176 60 50 87 59 177 57 l42 -1 0
-417 c0 -254 -4 -432 -10 -455 -13 -45 -61 -88 -101 -88 -24 0 -29 -4 -29 -24
l0 -25 270 0 270 0 0 25 c0 20 -5 24 -29 24 -40 0 -85 40 -99 88 -8 27 -12
166 -12 457 l0 417 78 -3 c67 -3 84 -8 115 -32 52 -39 85 -86 116 -164 22 -53
33 -69 51 -71 23 -4 23 -3 17 70 -4 40 -10 115 -13 166 l-7 92 -484 0 c-378 0
-484 -3 -488 -12z"/>
<path d="M5070 2690 c0 -16 7 -20 30 -20 20 0 42 -11 65 -32 52 -49 57 -93 53
-502 -3 -313 -5 -355 -21 -383 -19 -36 -63 -63 -102 -63 -20 0 -25 -5 -25 -24
l0 -24 258 -1 c141 0 265 2 275 5 9 3 17 13 17 23 0 14 -10 20 -40 24 -47 6
-65 18 -88 61 -15 28 -17 74 -17 416 0 298 3 394 14 423 15 43 60 77 104 77
20 0 27 5 27 20 0 20 -7 20 -275 20 -268 0 -275 0 -275 -20z"/>
<path d="M5760 2691 c0 -14 10 -20 38 -25 45 -7 68 -29 88 -83 17 -50 20 -730
3 -799 -14 -53 -57 -94 -100 -94 -25 0 -29 -4 -29 -26 l0 -26 298 5 c331 6
419 18 545 75 127 58 236 188 268 322 28 120 11 289 -42 391 -35 70 -121 151
-208 197 -133 71 -207 82 -563 82 -285 0 -298 -1 -298 -19z m643 -70 c151 -70
210 -195 210 -441 0 -202 -31 -300 -126 -387 -56 -52 -130 -79 -239 -88 l-88
-7 0 477 0 477 98 -4 c72 -4 109 -11 145 -27z"/>
<path d="M7000 2692 c0 -13 12 -21 42 -28 48 -10 75 -41 88 -100 13 -55 12
-712 -1 -772 -12 -59 -40 -88 -94 -100 -30 -6 -40 -13 -40 -27 0 -20 10 -20
470 -20 l470 0 6 70 c3 39 9 112 13 163 l7 92 -26 0 c-16 0 -28 -7 -31 -17
-22 -68 -80 -166 -116 -197 -54 -46 -112 -58 -268 -54 l-125 3 -3 223 -2 222
56 0 c120 0 170 -34 189 -128 9 -47 15 -58 33 -60 l22 -3 0 221 0 221 -22 -3
c-19 -2 -24 -11 -30 -52 -13 -94 -69 -136 -180 -136 l-68 0 0 220 0 220 130 0
c88 0 141 -4 163 -14 48 -20 110 -95 148 -181 25 -55 39 -75 53 -75 18 0 18 6
12 98 -3 53 -9 127 -13 165 l-6 67 -438 0 c-417 0 -439 -1 -439 -18z"/>
<path d="M8080 2690 c0 -16 7 -20 31 -20 22 0 41 -10 64 -33 45 -45 47 -70 43
-507 -3 -391 -5 -406 -55 -429 -13 -6 -38 -11 -54 -11 -26 0 -30 -3 -27 -22 3
-23 5 -23 176 -26 l172 -2 0 23 c0 22 -6 25 -46 30 -32 3 -55 13 -73 31 l-26
26 -5 388 c-3 213 -4 388 -3 390 1 4 94 -112 341 -424 70 -89 181 -229 247
-313 l120 -151 42 0 43 0 0 448 c1 246 5 467 9 492 11 55 48 90 97 90 27 0 34
4 34 20 0 19 -7 20 -175 20 -164 0 -175 -1 -175 -19 0 -14 10 -19 45 -24 54
-6 81 -27 96 -76 6 -22 9 -131 7 -279 l-3 -243 -110 137 c-60 75 -133 167
-162 203 -28 36 -94 118 -145 181 l-94 115 -207 3 c-202 2 -207 2 -207 -18z"/>
<path d="M9356 2693 c-4 -14 -19 -228 -21 -298 0 -5 10 -11 22 -13 17 -3 24 5
38 47 26 78 87 166 137 194 44 26 63 30 136 28 l42 -1 0 -430 c0 -473 -1 -485
-59 -514 -16 -9 -41 -16 -56 -16 -20 0 -25 -5 -25 -25 l0 -25 270 0 270 0 0
24 c0 19 -6 24 -38 30 -48 7 -78 39 -91 96 -6 27 -11 208 -11 453 l0 407 48 1
c75 2 95 -2 129 -23 51 -31 100 -94 132 -172 22 -54 35 -72 52 -74 l22 -4 -7
124 c-3 67 -9 142 -12 166 l-6 42 -483 0 c-452 0 -484 -1 -489 -17z"/>
<path d="M10490 2690 c0 -15 7 -20 25 -20 41 0 81 -26 101 -67 18 -35 19 -66
19 -428 0 -347 -2 -393 -17 -421 -23 -43 -41 -55 -88 -61 -34 -5 -40 -9 -40
-29 l0 -24 473 2 472 3 7 95 c4 52 9 125 12 163 6 67 6 67 -19 67 -18 0 -29
-8 -37 -27 -59 -149 -112 -212 -193 -232 -24 -6 -105 -11 -179 -11 l-136 0 0
225 0 225 63 0 c115 -1 170 -43 184 -145 5 -39 9 -45 29 -45 l24 0 0 220 0
220 -25 0 c-21 0 -25 -5 -25 -32 -1 -46 -33 -113 -65 -134 -18 -11 -54 -19
-106 -22 l-79 -5 0 222 0 221 130 0 c149 0 182 -11 240 -76 28 -33 75 -120 94
-176 3 -10 15 -18 27 -18 20 0 21 3 15 73 -3 39 -9 114 -12 165 l-7 92 -443 0
c-437 0 -444 0 -444 -20z"/>
<path d="M6670 1159 c-106 -21 -208 -98 -252 -189 -30 -60 -36 -170 -14 -237
9 -27 31 -72 50 -100 28 -42 35 -64 41 -129 21 -228 137 -375 295 -377 76 0
135 29 202 102 52 56 118 164 118 194 0 10 24 22 72 37 92 28 162 63 182 92 9
12 14 23 13 25 -2 1 -43 -15 -93 -36 -49 -21 -103 -41 -120 -45 l-30 -7 4 121
c5 133 -6 212 -43 302 -28 68 -82 143 -132 180 -74 57 -202 86 -293 67z m224
-59 c61 -29 105 -75 145 -149 48 -90 63 -175 59 -323 -4 -166 1 -161 -163
-166 -185 -6 -289 18 -368 88 -36 31 -37 34 -31 84 8 70 32 152 60 207 24 48
75 99 100 99 21 0 17 18 -6 25 -67 21 -157 -105 -183 -260 l-14 -80 -28 55
c-32 64 -44 161 -26 227 25 91 103 172 201 207 65 23 190 17 254 -14z m-307
-599 c100 -61 162 -76 330 -76 l152 0 -37 -69 c-142 -265 -384 -262 -470 6
-21 64 -38 168 -29 168 3 0 27 -13 54 -29z"/>
<path d="M8777 1044 c-4 -42 -7 -98 -7 -124 l0 -47 -82 -7 c-95 -8 -210 -25
-217 -32 -3 -2 0 -9 5 -14 6 -6 54 -4 129 5 66 8 129 15 140 15 20 0 20 -7 20
-348 0 -264 3 -352 13 -369 24 -42 33 -27 25 40 -9 69 -7 593 2 644 3 17 13
34 22 37 25 10 422 20 474 12 l46 -7 -5 -152 c-5 -178 6 -248 45 -289 20 -21
36 -28 65 -28 32 0 47 8 89 47 52 48 93 113 87 138 -2 8 -22 -10 -48 -42 -25
-31 -67 -71 -93 -90 -58 -39 -82 -33 -94 25 -17 80 -2 482 23 605 4 19 1 29
-11 33 -9 4 -18 4 -21 1 -5 -4 -13 -59 -29 -179 l-6 -47 -31 11 c-21 8 -109 9
-270 5 l-240 -6 8 101 c4 56 7 109 8 117 1 9 -8 17 -20 19 -19 3 -22 -3 -27
-74z"/>
<path d="M7680 1088 c-1 -64 -43 -347 -59 -399 l-21 -67 -41 9 c-77 18 -169
-28 -169 -84 0 -34 35 -75 73 -85 60 -16 114 20 153 103 l24 50 0 -115 c0
-184 24 -278 73 -288 12 -3 11 5 -6 40 -20 40 -22 58 -21 253 0 126 5 244 14
295 7 47 14 132 14 190 1 92 -1 105 -16 108 -10 2 -18 -2 -18 -10z m-107 -519
c-22 -37 -78 -89 -98 -89 -15 0 -45 27 -45 40 0 21 24 59 44 68 11 6 43 11 69
11 l48 1 -18 -31z"/>
<path d="M10550 769 c-11 -26 -11 -32 1 -40 22 -14 29 -11 40 18 20 54 -19 76
-41 22z"/>
<path d="M10516 635 c-3 -9 -6 -43 -6 -75 0 -48 5 -64 24 -87 20 -23 32 -28
68 -27 54 1 117 33 168 84 64 64 49 76 -25 20 -68 -51 -124 -74 -165 -68 -23
3 -25 7 -24 53 0 28 2 64 5 80 3 25 0 31 -17 33 -13 2 -24 -4 -28 -13z"/>
<path d="M7885 622 c-57 -49 -71 -109 -34 -156 45 -58 159 -13 159 63 0 29 2
30 58 36 82 9 111 15 117 26 4 5 -36 9 -96 9 -74 0 -107 4 -118 14 -27 24 -64
28 -86 8z m50 -46 c19 -8 35 -22 35 -30 0 -54 -54 -102 -85 -76 -17 14 -20 72
-5 101 13 23 12 23 55 5z"/>
<path d="M8998 613 c-76 -80 -52 -173 45 -173 50 0 87 35 87 84 l0 35 58 6
c94 10 121 15 127 25 4 6 -35 10 -101 10 -79 0 -112 4 -123 14 -33 29 -64 29
-93 -1z m92 -75 c0 -28 -38 -78 -59 -78 -36 0 -53 68 -26 107 13 19 19 20 50
10 29 -9 35 -15 35 -39z"/>
<path d="M9692 606 c-47 -47 -54 -104 -19 -140 31 -30 84 -35 122 -10 24 16
51 76 41 92 -3 5 33 14 80 19 128 16 131 33 6 33 -83 0 -109 4 -139 20 -49 26
-52 25 -91 -14z m98 -68 c0 -27 -38 -78 -57 -78 -24 1 -38 22 -38 58 0 57 17
73 60 59 29 -9 35 -15 35 -39z"/>
<path d="M10232 615 c-7 -13 -14 -14 -36 -5 -36 13 -109 13 -141 -2 -46 -21
-42 -77 9 -120 38 -32 95 -17 145 36 29 31 41 21 41 -34 0 -29 -6 -39 -35 -59
-60 -41 -166 -161 -192 -218 -32 -69 -26 -110 23 -157 42 -41 78 -49 122 -29
66 31 112 164 112 322 0 93 0 92 123 154 48 24 85 46 81 49 -8 8 -73 -12 -146
-46 l-58 -26 0 63 c0 75 -25 112 -48 72z m-37 -34 c6 -11 -81 -81 -101 -81
-21 0 -36 37 -24 59 5 11 15 22 22 24 23 9 97 7 103 -2z m31 -370 c-31 -149
-113 -211 -170 -129 -9 12 -16 32 -16 44 0 44 63 148 129 212 l66 64 3 -59 c2
-33 -4 -93 -12 -132z"/>
<path d="M11056 615 c-4 -12 -11 -13 -31 -5 -104 40 -237 -28 -209 -107 21
-61 94 -61 182 -1 l43 29 28 -30 c24 -25 37 -31 72 -31 57 0 124 34 154 79 30
44 16 52 -26 16 -45 -37 -103 -65 -138 -65 -40 0 -53 25 -40 74 5 20 7 41 4
46 -9 15 -32 12 -39 -5z m-36 -34 c0 -14 -79 -69 -117 -82 -35 -11 -63 -7 -63
10 0 21 47 63 80 71 49 11 100 12 100 1z"/>
<path d="M8226 598 c-3 -13 -6 -49 -6 -80 0 -66 19 -79 40 -29 18 44 109 101
159 101 14 0 20 -10 24 -41 11 -85 86 -111 181 -65 56 27 106 76 106 102 0 10
-18 2 -57 -24 -106 -72 -154 -87 -181 -60 -7 7 -12 33 -12 59 0 33 -5 49 -16
53 -33 13 -91 5 -142 -19 -30 -14 -56 -25 -58 -25 -2 0 -3 10 -1 22 3 31 -29
36 -37 6z"/>
</g>
</svg>
